# xmcd CD database file
#
# Track frame offsets:
#	150
#	18558
#	38382
#	59861
#	72595
#	95380
#	111535
#	129626
#	152576
#	174558
#	194187
#
# Disc length: 2655 seconds
#
# Revision: 0
# Processed by: cddbd v1.5.2PL0 Copyright (c) Steve Scherf et al.
# Submitted via: CDex 1.70beta2
#
DISCID=a40a5d0b
DTITLE=Ethan Brosh - Out Of Oblivion
DYEAR=2009
DGENRE=Guitar Rock
TTITLE0=The Hit Man
TTITLE1=Night City
TTITLE2=Downward Spiral
TTITLE3=Blast Off
TTITLE4=Ancient Land
TTITLE5=Illusion
TTITLE6=In A Sentimetal Mood
TTITLE7=Blade Runner
TTITLE8=Last Hope
TTITLE9=Bach Prelude No. 04 From "Lute Suite" In E Major
TTITLE10=Affliction
EXTD=YEAR: 2009
EXTT0=
EXTT1=
EXTT2=
EXTT3=
EXTT4=
EXTT5=
EXTT6=
EXTT7=
EXTT8=
EXTT9=
EXTT10=
PLAYORDER=
